<?xml version="1.0" encoding="utf-8"?>
<!-- Generator: Adobe Illustrator 26.5.3, SVG Export Plug-In . SVG Version: 6.00 Build 0)  -->
<svg version="1.1" id="Layer_1" xmlns="http://www.w3.org/2000/svg" xmlns:xlink="http://www.w3.org/1999/xlink" x="0px" y="0px"
	 viewBox="0 0 792 612" style="enable-background:new 0 0 792 612;" xml:space="preserve">
<style type="text/css">
	.st0{stroke:#000000;stroke-miterlimit:10;}
	.st1{fill:#FFFFFF;stroke:#000000;stroke-miterlimit:10;}
</style>
<path class="st0" d="M323.02,453.94c2.95-16.06,5.9-32.12,8.85-48.19c-14.88,5.15-22.95,2.96-27.54,0
	c-30.41-19.58,10.06-125.34,11.8-129.81c-11.82,12.65-25.87,30.2-38.35,53.1c-12.1,22.19-8.19,42.17-19.67,46.22
	c-7.92,2.79-13.73-4.21-32.45-14.75c-37.58-21.15-52.84-14.68-65.89-30.49c-6.8-8.23-13.55-23.19-8.85-52.12
	c12.96-3.49,27.65-8.49,43.27-15.73c28.72-13.33,50.52-29.62,65.89-43.27c-19.32,9.49-43.37,19.02-71.79,25.57
	c-11.78,2.71-22.97,4.61-33.44,5.9c0.74-10.15,2.42-22.18,5.9-35.4c4.81-18.26,11.58-33.12,17.7-44.25
	c-8.57,7.33-21.32,20.09-31.47,39.34c-8.51,16.14-12.12,31.01-13.77,41.3c-10.49,1.64-20.98,3.28-31.47,4.92
	c-3.58-14.67-6.69-33.35-6.88-55.07c-0.28-32.09,5.91-58.5,11.8-76.71c-9.16,12.39-24.47,36.59-30.49,70.8
	c-4.69,26.67-1.9,49,0.98,62.94c-8.45,0.38-16.03,5.29-19.67,12.78c-4.01,8.26-0.73,17.21,0.98,21.63
	c12.96,33.4,68.7,59.43,100.31,72.77c38.06,16.07,40.23,13.36,61.95,23.6c42.4,20,71.37,47.89,89.49,68.84
	C314.5,456.57,318.76,455.25,323.02,453.94z"/>
<path class="st1" d="M125.84,278.12c-1.3,2.71-2.89,6.74-3.62,11.78c-1.96,13.4,3.8,22.51,1.81,23.56
	c-2.05,1.08-9.98-7.61-14.5-18.12c-2.15-5.01-3.14-9.5-3.62-12.69C112.55,281.14,119.2,279.63,125.84,278.12z"/>
<path class="st0" d="M468.98,453.94c-2.95-16.06-5.9-32.12-8.85-48.19c14.88,5.15,22.95,2.96,27.54,0
	c30.41-19.58-10.06-125.34-11.8-129.81c11.82,12.65,25.87,30.2,38.35,53.1c12.1,22.19,8.19,42.17,19.67,46.22
	c7.92,2.79,13.73-4.21,32.45-14.75c37.58-21.15,52.84-14.68,65.89-30.49c6.8-8.23,13.55-23.19,8.85-52.12
	c-12.96-3.49-27.65-8.49-43.27-15.73c-28.72-13.33-50.52-29.62-65.89-43.27c19.32,9.49,43.37,19.02,71.79,25.57
	c11.78,2.71,22.97,4.61,33.44,5.9c-0.74-10.15-2.42-22.18-5.9-35.4c-4.81-18.26-11.58-33.12-17.7-44.25
	c8.57,7.33,21.32,20.09,31.47,39.34c8.51,16.14,12.12,31.01,13.77,41.3c10.49,1.64,20.98,3.28,31.47,4.92
	c3.58-14.67,6.69-33.35,6.88-55.07c0.28-32.09-5.91-58.5-11.8-76.71c9.16,12.39,24.47,36.59,30.49,70.8
	c4.69,26.67,1.9,49-0.98,62.94c8.45,0.38,16.03,5.29,19.67,12.78c4.01,8.26,0.73,17.21-0.98,21.63
	c-12.96,33.4-68.7,59.43-100.31,72.77c-38.06,16.07-40.23,13.36-61.95,23.6c-42.4,20-71.37,47.89-89.49,68.84
	C477.5,456.57,473.24,455.25,468.98,453.94z"/>
<path class="st1" d="M666.16,278.12c1.3,2.71,2.89,6.74,3.62,11.78c1.96,13.4-3.8,22.51-1.81,23.56c2.05,1.08,9.98-7.61,14.5-18.12
	c2.15-5.01,3.14-9.5,3.62-12.69C679.45,281.14,672.8,279.63,666.16,278.12z"/>
</svg>
